<svg width="512" height="512" viewBox="0 0 512 512" fill="none" xmlns="http://www.w3.org/2000/svg">
<rect width="512" height="512" rx="120" fill="url(#paint0_linear_logo)"/>
<path d="M362.667 149.333C350.934 137.6 331.734 137.6 320 149.333L160 309.333L202.667 352L362.667 192C374.4 180.267 374.4 161.067 362.667 149.333ZM221.867 352L243.2 330.667L181.333 268.8L160 290.133C148.267 301.867 148.267 321.067 160 332.8C165.867 338.667 173.547 341.6 181.227 341.6C188.907 341.6 196.587 338.667 202.453 332.8L221.867 352ZM302.933 189.867L281.6 211.2L343.467 273.067L364.8 251.733C376.533 240 376.533 220.8 364.8 209.067C358.933 203.2 351.253 200.267 343.573 200.267C335.893 200.267 328.213 203.2 322.347 209.067L302.933 189.867Z" fill="white"/>
<defs>
<linearGradient id="paint0_linear_logo" x1="0" y1="0" x2="512" y2="512" gradientUnits="userSpaceOnUse">
<stop stop-color="#2dd4bf"/>
<stop offset="1" stop-color="#0d9488"/>
</linearGradient>
</defs>
</svg>
